<svg xmlns="http://www.w3.org/2000/svg" viewBox="0 0 1024 1024" role="img" aria-label="SSE ExEd Studio Control">
  <defs>
    <linearGradient id="bg" x1="144" y1="112" x2="880" y2="912" gradientUnits="userSpaceOnUse">
      <stop offset="0" stop-color="#182017" />
      <stop offset="0.56" stop-color="#08090e" />
      <stop offset="1" stop-color="#101419" />
    </linearGradient>
    <linearGradient id="rail" x1="336" y1="226" x2="688" y2="798" gradientUnits="userSpaceOnUse">
      <stop offset="0" stop-color="#c8e6bf" />
      <stop offset="1" stop-color="#99ba92" />
    </linearGradient>
    <filter id="shadow" x="160" y="176" width="704" height="704" color-interpolation-filters="sRGB">
      <feDropShadow dx="0" dy="24" stdDeviation="40" flood-color="#000000" flood-opacity="0.42" />
    </filter>
  </defs>

  <rect width="1024" height="1024" rx="224" fill="url(#bg)" />
  <path
    d="M226 702V322c0-58 38-96 96-96h380c58 0 96 38 96 96v380c0 58-38 96-96 96H322c-58 0-96-38-96-96Z"
    fill="none"
    stroke="#99ba92"
    stroke-width="34"
    stroke-linejoin="round"
    opacity="0.95"
    filter="url(#shadow)"
  />
  <path d="M358 682V342" stroke="url(#rail)" stroke-width="38" stroke-linecap="round" />
  <path d="M512 682V342" stroke="url(#rail)" stroke-width="38" stroke-linecap="round" />
  <path d="M666 682V342" stroke="url(#rail)" stroke-width="38" stroke-linecap="round" />
  <circle cx="358" cy="440" r="58" fill="#f0f6ee" />
  <circle cx="512" cy="588" r="58" fill="#f0f6ee" />
  <circle cx="666" cy="486" r="58" fill="#f0f6ee" />
  <circle cx="358" cy="440" r="24" fill="#182017" />
  <circle cx="512" cy="588" r="24" fill="#182017" />
  <circle cx="666" cy="486" r="24" fill="#182017" />
</svg>
